<svg width="192" height="192" viewBox="0 0 192 192" fill="none" xmlns="http://www.w3.org/2000/svg">
<g clip-path="url(#clip0)">
<path d="M192 15V17C189.083 17 186.285 18.1589 184.222 20.2218C182.159 22.2847 181 25.0826 181 28C181 29.94 182.16 32.75 183.53 34.11L185.89 36.47C186.814 37.4708 187.422 38.7216 187.639 40.0662C187.856 41.4107 187.672 42.7894 187.11 44.03L186.68 44.87C186.011 46.0669 185.049 47.074 183.884 47.7965C182.719 48.519 181.389 48.9331 180.02 49H145V84.02C145.067 85.0179 145.379 85.9841 145.907 86.8333C146.435 87.6826 147.164 88.3889 148.03 88.89L148.87 89.32C150.45 90.11 152.87 89.72 154.11 88.47L156.47 86.11C158.537 84.2341 161.192 83.1347 163.98 83C165.687 82.9987 167.378 83.3336 168.956 83.9857C170.533 84.6378 171.967 85.5943 173.175 86.8005C174.383 88.0068 175.342 89.4391 175.997 91.0159C176.651 92.5926 176.989 94.2828 176.99 95.99C176.991 97.6972 176.656 99.3879 176.004 100.966C175.352 102.543 174.396 103.977 173.189 105.185C171.983 106.393 170.551 107.352 168.974 108.007C167.397 108.661 165.707 108.999 164 109C161.204 108.873 158.541 107.773 156.47 105.89L154.11 103.53C153.409 102.903 152.543 102.49 151.614 102.34C150.686 102.189 149.734 102.307 148.87 102.68L148.03 103.11C147.164 103.611 146.435 104.317 145.907 105.167C145.379 106.016 145.067 106.982 145 107.98V143H180.02C181.389 143.067 182.719 143.481 183.884 144.204C185.049 144.926 186.011 145.933 186.68 147.13L187.11 147.97C187.675 149.21 187.86 150.589 187.643 151.934C187.426 153.28 186.816 154.531 185.89 155.53L183.53 157.89C182.022 159.583 181.131 161.736 181 164C181 166.917 182.159 169.715 184.222 171.778C186.285 173.841 189.083 175 192 175V177C188.552 177 185.246 175.63 182.808 173.192C180.37 170.754 179 167.448 179 164C179.127 161.204 180.227 158.541 182.11 156.47L184.47 154.11C185.097 153.409 185.51 152.543 185.66 151.614C185.811 150.686 185.693 149.734 185.32 148.87L184.89 148.03C184.389 147.164 183.683 146.435 182.833 145.907C181.984 145.379 181.018 145.067 180.02 145H145V180.02C144.933 181.389 144.519 182.719 143.796 183.884C143.074 185.049 142.067 186.011 140.87 186.68L140.03 187.11C138.79 187.675 137.411 187.86 136.066 187.643C134.72 187.426 133.469 186.816 132.47 185.89L130.11 183.53C128.417 182.022 126.264 181.131 124 181C121.083 181 118.285 182.159 116.222 184.222C114.159 186.285 113 189.083 113 192H111C111 188.552 112.37 185.246 114.808 182.808C117.246 180.37 120.552 179 124 179C126.47 179 129.79 180.37 131.53 182.11L133.89 184.47C134.592 185.096 135.458 185.508 136.386 185.659C137.314 185.809 138.266 185.692 139.13 185.32L139.97 184.89C140.836 184.389 141.565 183.683 142.093 182.833C142.621 181.984 142.933 181.018 143 180.02V145H107.98C106.611 144.933 105.281 144.519 104.116 143.796C102.951 143.074 101.989 142.067 101.32 140.87L100.89 140.03C100.325 138.79 100.14 137.411 100.357 136.066C100.574 134.72 101.184 133.469 102.11 132.47L104.47 130.11C105.978 128.417 106.869 126.264 107 124C107 121.083 105.841 118.285 103.778 116.222C101.715 114.159 98.9174 113 96 113C93.0826 113 90.2847 114.159 88.2218 116.222C86.1589 118.285 85 121.083 85 124C85 125.94 86.16 128.75 87.53 130.11L89.89 132.47C90.8137 133.471 91.4221 134.722 91.6391 136.066C91.856 137.411 91.672 138.789 91.11 140.03L90.68 140.87C90.0114 142.067 89.0493 143.074 87.8842 143.796C86.7191 144.519 85.3893 144.933 84.02 145H49V180.02C49.0671 181.018 49.3785 181.984 49.9069 182.833C50.4353 183.683 51.1644 184.389 52.03 184.89L52.87 185.32C54.45 186.11 56.87 185.72 58.11 184.47L60.47 182.11C62.5371 180.234 65.1918 179.135 67.98 179C69.6889 178.997 71.3815 179.332 72.961 179.984C74.5406 180.636 75.976 181.593 77.1853 182.801C78.3946 184.008 79.354 185.442 80.0085 187.02C80.6631 188.599 81 190.291 81 192H79C79 189.083 77.8411 186.285 75.7782 184.222C73.7153 182.159 70.9174 181 68 181C66.06 181 63.25 182.16 61.89 183.53L59.53 185.89C58.5292 186.814 57.2784 187.422 55.9338 187.639C54.5893 187.856 53.2106 187.672 51.97 187.11L51.13 186.68C49.9331 186.011 48.926 185.049 48.2035 183.884C47.481 182.719 47.0669 181.389 47 180.02V145H11.98C10.9821 145.067 10.0159 145.379 9.16666 145.907C8.31742 146.435 7.61113 147.164 7.11 148.03L6.68 148.87C5.89 150.45 6.28 152.87 7.53 154.11L9.89 156.47C11.7659 158.537 12.8653 161.192 13 163.98C13.0026 165.689 12.6683 167.381 12.0162 168.961C11.364 170.541 10.4069 171.976 9.19947 173.185C7.99204 174.395 6.55805 175.354 4.97951 176.009C3.40097 176.663 1.70887 177 0 177L0 175C2.91738 175 5.71527 173.841 7.77817 171.778C9.84107 169.715 11 166.917 11 164C11 162.06 9.84 159.25 8.47 157.89L6.11 155.53C5.18626 154.529 4.57791 153.278 4.36093 151.934C4.14395 150.589 4.32797 149.211 4.89 147.97L5.32 147.13C5.98857 145.933 6.95068 144.926 8.11579 144.204C9.2809 143.481 10.6107 143.067 11.98 143H47V107.98C46.9329 106.982 46.6215 106.016 46.0931 105.167C45.5647 104.317 44.8356 103.611 43.97 103.11L43.13 102.68C41.54 101.88 39.13 102.28 37.89 103.53L35.53 105.89C33.4595 107.773 30.7959 108.873 28 109C24.5522 109 21.2456 107.63 18.8076 105.192C16.3696 102.754 15 99.4478 15 96C15 92.5522 16.3696 89.2456 18.8076 86.8076C21.2456 84.3696 24.5522 83 28 83C30.47 83 33.79 84.37 35.53 86.11L37.89 88.47C38.5919 89.0957 39.4579 89.5081 40.3861 89.6587C41.3143 89.8092 42.2663 89.6917 43.13 89.32L43.97 88.89C44.8356 88.3889 45.5647 87.6826 46.0931 86.8333C46.6215 85.9841 46.9329 85.0179 47 84.02V49H11.98C10.6107 48.9331 9.2809 48.519 8.11579 47.7965C6.95068 47.074 5.98857 46.0669 5.32 44.87L4.89 44.03C4.32535 42.79 4.1399 41.4107 4.35697 40.0655C4.57404 38.7204 5.18395 37.4695 6.11 36.47L8.47 34.11C9.97778 32.4166 10.8693 30.2636 11 28C11 25.0826 9.84107 22.2847 7.77817 20.2218C5.71527 18.1589 2.91738 17 0 17L0 15C3.44781 15 6.75442 16.3696 9.19239 18.8076C11.6304 21.2456 13 24.5522 13 28C13 30.47 11.63 33.79 9.89 35.53L7.53 37.89C6.90428 38.5919 6.49191 39.4579 6.34134 40.3861C6.19078 41.3143 6.30826 42.2663 6.68 43.13L7.11 43.97C7.61113 44.8356 8.31742 45.5647 9.16666 46.0931C10.0159 46.6215 10.9821 46.9329 11.98 47H47V11.98C47.0669 10.6107 47.481 9.2809 48.2035 8.11579C48.926 6.95068 49.9331 5.98857 51.13 5.32L51.97 4.89C53.21 4.32535 54.5893 4.1399 55.9345 4.35697C57.2796 4.57404 58.5305 5.18395 59.53 6.11L61.89 8.47C63.5834 9.97778 65.7364 10.8693 68 11C70.9174 11 73.7153 9.84107 75.7782 7.77817C77.8411 5.71527 79 2.91738 79 0H81C81 3.44781 79.6304 6.75442 77.1924 9.19239C74.7544 11.6304 71.4478 13 68 13C65.2041 12.8732 62.5405 11.7731 60.47 9.89L58.11 7.53C57.4087 6.9032 56.5427 6.49012 55.6142 6.33951C54.6857 6.1889 53.7335 6.30704 52.87 6.68L52.03 7.11C51.1644 7.61113 50.4353 8.31742 49.9069 9.16666C49.3785 10.0159 49.0671 10.9821 49 11.98V47H84.02C85.3893 47.0669 86.7191 47.481 87.8842 48.2035C89.0493 48.926 90.0114 49.9331 90.68 51.13L91.11 51.97C91.6747 53.21 91.8601 54.5893 91.643 55.9345C91.426 57.2796 90.8161 58.5305 89.89 59.53L87.53 61.89C86.0222 63.5834 85.1307 65.7364 85 68C85 70.9174 86.1589 73.7153 88.2218 75.7782C90.2847 77.8411 93.0826 79 96 79C98.9174 79 101.715 77.8411 103.778 75.7782C105.841 73.7153 107 70.9174 107 68C107 66.06 105.84 63.25 104.47 61.89L102.11 59.53C101.186 58.5292 100.578 57.2784 100.361 55.9338C100.144 54.5893 100.328 53.2106 100.89 51.97L101.32 51.13C101.989 49.9331 102.951 48.926 104.116 48.2035C105.281 47.481 106.611 47.0669 107.98 47H143V11.98C142.933 10.9821 142.621 10.0159 142.093 9.16666C141.565 8.31742 140.836 7.61113 139.97 7.11L139.13 6.68C137.54 5.88 135.13 6.28 133.89 7.53L131.53 9.89C129.459 11.7731 126.796 12.8732 124 13C120.552 13 117.246 11.6304 114.808 9.19239C112.37 6.75442 111 3.44781 111 0L113 0C113 2.91738 114.159 5.71527 116.222 7.77817C118.285 9.84107 121.083 11 124 11C125.94 11 128.75 9.84 130.11 8.47L132.47 6.11C133.471 5.18626 134.722 4.57791 136.066 4.36093C137.411 4.14395 138.789 4.32797 140.03 4.89L140.87 5.32C142.067 5.98857 143.074 6.95068 143.796 8.11579C144.519 9.2809 144.933 10.6107 145 11.98V47H180.02C181.018 46.9329 181.984 46.6215 182.833 46.0931C183.683 45.5647 184.389 44.8356 184.89 43.97L185.32 43.13C186.12 41.54 185.72 39.13 184.47 37.89L182.11 35.53C180.227 33.4595 179.127 30.7959 179 28C179 24.5522 180.37 21.2456 182.808 18.8076C185.246 16.3696 188.552 15 192 15V15ZM84.02 143C85.0179 142.933 85.9841 142.621 86.8333 142.093C87.6826 141.565 88.3889 140.836 88.89 139.97L89.32 139.13C90.12 137.54 89.72 135.13 88.47 133.89L86.11 131.53C84.2269 129.459 83.1268 126.796 83 124C83 120.552 84.3696 117.246 86.8076 114.808C89.2456 112.37 92.5522 111 96 111C99.4478 111 102.754 112.37 105.192 114.808C107.63 117.246 109 120.552 109 124C109 126.47 107.63 129.79 105.89 131.53L103.53 133.89C102.904 134.592 102.492 135.458 102.341 136.386C102.191 137.314 102.308 138.266 102.68 139.13L103.11 139.97C103.611 140.836 104.317 141.565 105.167 142.093C106.016 142.621 106.982 142.933 107.98 143H143V107.98C143.067 106.611 143.481 105.281 144.204 104.116C144.926 102.951 145.933 101.989 147.13 101.32L147.97 100.89C149.21 100.325 150.589 100.14 151.934 100.357C153.28 100.574 154.531 101.184 155.53 102.11L157.89 104.47C159.583 105.978 161.736 106.869 164 107C166.917 107 169.715 105.841 171.778 103.778C173.841 101.715 175 98.9174 175 96C175 93.0826 173.841 90.2847 171.778 88.2218C169.715 86.1589 166.917 85 164 85C162.06 85 159.25 86.16 157.89 87.53L155.53 89.89C154.529 90.8137 153.278 91.4221 151.934 91.6391C150.589 91.856 149.211 91.672 147.97 91.11L147.13 90.68C145.933 90.0114 144.926 89.0493 144.204 87.8842C143.481 86.7191 143.067 85.3893 143 84.02V49H107.98C106.982 49.0671 106.016 49.3785 105.167 49.9069C104.317 50.4353 103.611 51.1644 103.11 52.03L102.68 52.87C101.89 54.45 102.28 56.87 103.53 58.11L105.89 60.47C107.766 62.5371 108.865 65.1918 109 67.98C109.001 69.6872 108.666 71.3779 108.014 72.9556C107.362 74.5334 106.406 75.9672 105.199 77.1753C102.763 79.6152 99.4578 80.9873 96.01 80.99C94.3028 80.9913 92.6121 80.6564 91.0344 80.0043C89.4566 79.3522 88.0228 78.3957 86.8147 77.1895C84.3748 74.7534 83.0027 71.4478 83 68C83.1268 65.2041 84.2269 62.5405 86.11 60.47L88.47 58.11C89.0968 57.4087 89.5099 56.5427 89.6605 55.6142C89.8111 54.6857 89.693 53.7335 89.32 52.87L88.89 52.03C88.3889 51.1644 87.6826 50.4353 86.8333 49.9069C85.9841 49.3785 85.0179 49.0671 84.02 49H49V84.02C48.9331 85.3893 48.519 86.7191 47.7965 87.8842C47.074 89.0493 46.0669 90.0114 44.87 90.68L44.03 91.11C42.79 91.6747 41.4107 91.8601 40.0655 91.643C38.7204 91.426 37.4695 90.8161 36.47 89.89L34.11 87.53C32.4166 86.0222 30.2636 85.1307 28 85C25.0826 85 22.2847 86.1589 20.2218 88.2218C18.1589 90.2847 17 93.0826 17 96C17 98.9174 18.1589 101.715 20.2218 103.778C22.2847 105.841 25.0826 107 28 107C29.94 107 32.75 105.84 34.11 104.47L36.47 102.11C37.4708 101.186 38.7216 100.578 40.0662 100.361C41.4107 100.144 42.7894 100.328 44.03 100.89L44.87 101.32C46.0669 101.989 47.074 102.951 47.7965 104.116C48.519 105.281 48.9331 106.611 49 107.98V143H84.02V143Z" fill="black" fill-opacity="0.05"/>
</g>
<defs>
<clipPath id="clip0">
<rect width="192" height="192" fill="white"/>
</clipPath>
</defs>
</svg>
