<svg width="64" height="64" viewBox="0 0 64 64" fill="none" xmlns="http://www.w3.org/2000/svg">
<path fill-rule="evenodd" clip-rule="evenodd" d="M8 16C12.4183 16 16 12.4183 16 8C16 3.58172 12.4183 0 8 0C3.58172 0 0 3.58172 0 8C0 12.4183 3.58172 16 8 16ZM8 14C11.3137 14 14 11.3137 14 8C14 4.68629 11.3137 2 8 2C4.68629 2 2 4.68629 2 8C2 11.3137 4.68629 14 8 14ZM41.4142 8L47.364 2.05025L45.9497 0.636039L40 6.58579L34.0503 0.636039L32.636 2.05025L38.5858 8L32.636 13.9497L34.0503 15.364L40 9.41421L45.9497 15.364L47.364 13.9497L41.4142 8ZM40 48C44.4183 48 48 44.4183 48 40C48 35.5817 44.4183 32 40 32C35.5817 32 32 35.5817 32 40C32 44.4183 35.5817 48 40 48ZM40 46C43.3137 46 46 43.3137 46 40C46 36.6863 43.3137 34 40 34C36.6863 34 34 36.6863 34 40C34 43.3137 36.6863 46 40 46ZM9.41421 40L15.364 34.0503L13.9497 32.636L8 38.5858L2.05025 32.636L0.636039 34.0503L6.58579 40L0.636039 45.9497L2.05025 47.364L8 41.4142L13.9497 47.364L15.364 45.9497L9.41421 40Z" fill="black" fill-opacity="0.05"/>
</svg>
